<?xml version="1.0" standalone="no"?><!DOCTYPE svg PUBLIC "-//W3C//DTD SVG 1.1//EN" "http://www.w3.org/Graphics/SVG/1.1/DTD/svg11.dtd"><svg t="1742971635655" class="icon" viewBox="0 0 1024 1024" version="1.1" xmlns="http://www.w3.org/2000/svg" p-id="61033" xmlns:xlink="http://www.w3.org/1999/xlink" width="200" height="200"><path d="M102.4 870.4a153.6 153.6 0 0 0 153.6 153.6h512a153.6 153.6 0 0 0 153.6-153.6V256L665.6 0H256a153.6 153.6 0 0 0-153.6 153.6v716.8z" fill="#99DB3C" p-id="61034"></path><path d="M665.6 0v153.6a102.4 102.4 0 0 0 102.4 102.4h153.6L665.6 0z" fill="#FFFFFF" fill-opacity=".4" p-id="61035"></path><path d="M749.8752 614.6816l-219.6736 219.6992a25.6256 25.6256 0 0 1-36.2496 0l-219.8272-219.8272a25.6256 25.6256 0 0 1 0-36.2496l219.8272-219.8272a25.6256 25.6256 0 0 1 36.2496 0l133.9648 133.9904-160.7168 160.7424-43.52-43.4944 117.248-117.248-65.1008-65.1264-169.088 169.088 169.088 169.088 212.4288-212.4544 25.3696 25.3696c10.0096 10.0096 10.0096 26.24 0 36.2496" fill="#FFFFFF" p-id="61036"></path></svg>