<?xml version="1.0" standalone="no"?><!DOCTYPE svg PUBLIC "-//W3C//DTD SVG 1.1//EN" "http://www.w3.org/Graphics/SVG/1.1/DTD/svg11.dtd"><svg t="1739116663985" class="icon" viewBox="0 0 1024 1024" version="1.1" xmlns="http://www.w3.org/2000/svg" p-id="9074" xmlns:xlink="http://www.w3.org/1999/xlink" width="200" height="200"><path d="M644.8 92.16A254.496 254.496 0 0 0 528 64c-40.64-0.064-80.64 9.6-116.8 28.128l-8.32 4.48A255.936 255.936 0 0 0 272 320v31.968L192 352a32 32 0 0 0-32 32v512a32 32 0 0 0 32 32h656a32 32 0 0 0 32-32V384l-0.224-3.744A32 32 0 0 0 848 352l-64-0.032V320l-0.064-5.024a255.936 255.936 0 0 0-130.816-218.368l-8.32-4.448z m-308.736 222.976A192 192 0 0 1 720 320v31.968h-384V320l0.064-4.864zM784 415.968l32 0.032v448H224V416h48l64-0.032 384 0.032 64-0.032z m-252.288 64.096l-3.52-0.064c-53.152-0.096-96.192 43.776-96.192 97.824h64l0.096-2.496c1.248-18.176 15.936-31.968 33.152-31.296 16.032 0.608 30.08 15.072 30.72 32.416 0.416 11.808-4.8 22.56-13.664 29.12A122.656 122.656 0 0 0 496 704h64l0.096-3.424a58.976 58.976 0 0 1 24.288-43.552l3.296-2.56a98.464 98.464 0 0 0 36.256-80.384c-1.856-50.432-42.336-92.064-92.224-94.016zM560 800v-64h-64v64h64z" p-id="9075"></path></svg>