<?xml version="1.0" standalone="no"?><!DOCTYPE svg PUBLIC "-//W3C//DTD SVG 1.1//EN" "http://www.w3.org/Graphics/SVG/1.1/DTD/svg11.dtd"><svg t="1742970244192" class="icon" viewBox="0 0 1024 1024" version="1.1" xmlns="http://www.w3.org/2000/svg" p-id="23824" xmlns:xlink="http://www.w3.org/1999/xlink" width="200" height="200"><path d="M923.136 969.557333H193.024v-909.653333h521.386667l208.725333 207.701333z" fill="#7CCDFF" p-id="23825"></path><path d="M912.896 253.952l2.56 671.914667c0 15.530667-12.458667 27.989333-27.989333 27.989333H237.909333c-15.530667 0-27.989333-12.458667-27.989333-27.989333V96.938667c0-15.530667 12.458667-27.989333 27.989333-27.989334l493.397334-1.024-38.912-39.936H239.274667c-36.352 0-65.706667 29.354667-65.706667 65.706667v835.584c0 36.352 29.354667 65.706667 65.706667 65.706667h646.826666c36.352 0 65.706667-29.354667 65.706667-65.706667V293.888l-38.912-39.936z" fill="#4191FB" p-id="23826"></path><path d="M692.394667 222.72c0 39.424 31.914667 71.338667 71.338666 71.338667h188.245334L692.394667 27.989333v194.730667z" fill="#C7E2FF" p-id="23827"></path><path d="M557.568 482.304H158.72c-50.346667 0-91.136-40.789333-91.136-91.136v-60.245333c0-50.346667 40.789333-91.136 91.136-91.136h398.848c50.346667 0 91.136 40.789333 91.136 91.136v60.245333c0 50.346667-40.789333 91.136-91.136 91.136z" fill="#4191FB" p-id="23828"></path><path d="M162.304 287.573333h69.290667c13.653333 0 24.746667 1.877333 33.109333 5.802667 8.362667 3.754667 15.36 9.386667 20.821333 16.384 5.461333 7.168 9.557333 15.530667 11.946667 24.917333 2.389333 9.557333 3.754667 19.626667 3.754667 30.208 0 16.725333-1.877333 29.525333-5.461334 38.741334-3.754667 9.216-8.704 16.896-15.36 23.04-6.485333 6.144-13.482667 10.24-20.992 12.458666-10.24 2.901333-19.456 4.266667-27.818666 4.266667H162.304v-155.818667z m46.592 35.328V407.893333h11.434667c9.728 0 16.725333-1.194667 20.821333-3.413333s7.338667-6.144 9.728-11.605333c2.389333-5.632 3.584-14.506667 3.584-26.965334 0-16.554667-2.56-27.818667-7.850667-33.962666-5.290667-6.144-13.824-9.216-25.941333-9.216l-11.776 0.170666zM325.802667 287.573333h46.592v117.418667h72.874666v38.4h-119.466666v-155.818667zM466.432 287.573333h46.592v117.418667h72.874667v38.4h-119.466667v-155.818667z" fill="#FFFFFF" p-id="23829"></path><path d="M605.525333 914.944l0.170667-10.24c0-4.096-0.512-8.021333-1.706667-11.946667-5.290667-19.114667-22.869333-32.426667-42.837333-32.426666-19.797333 0-37.376 13.312-42.837333 32.426666-1.024 3.925333-1.706667 7.850667-1.706667 11.946667V915.114667l-9.728-2.56c-4.949333-1.365333-9.898667-2.901333-14.848-4.608-4.096-1.536-8.362667-3.072-12.458667-4.778667-3.242667-1.365333-6.314667-2.730667-9.386666-4.266667-4.608-2.218667-9.216-4.608-13.653334-7.168l-8.704-4.949333 7.338667-7.168c2.901333-2.901333 5.461333-6.144 7.338667-9.728 9.728-17.237333 6.656-39.082667-7.338667-53.248-8.362667-8.362667-19.626667-12.970667-31.402667-12.970667-7.68 0-15.189333 1.877333-21.674666 5.632-3.584 2.048-6.826667 4.437333-9.728 7.338667l-0.170667 0.170667-6.997333 7.168-4.949334-8.704c-2.56-4.437333-4.949333-9.045333-7.168-13.653334-1.536-3.072-2.901333-6.314667-4.266666-9.386666-1.706667-4.096-3.413333-8.192-4.778667-12.458667-1.706667-4.778667-3.242667-9.898667-4.608-14.848l-2.56-9.728 10.24 0.170667c4.096 0 8.192-0.512 11.946667-1.706667 19.114667-5.290667 32.426667-22.869333 32.426666-42.837333 0-19.797333-13.312-37.376-32.426666-42.837334-3.925333-1.024-7.850667-1.706667-11.946667-1.706666l-10.24 0.170666 2.56-9.728c1.365333-4.949333 2.901333-9.898667 4.608-14.848 1.536-4.096 3.072-8.362667 4.778667-12.458666 1.365333-3.072 2.730667-6.314667 4.266666-9.386667 2.218667-4.608 4.608-9.216 7.168-13.653333l4.949334-8.704 7.168 7.338666c2.901333 2.901333 6.144 5.461333 9.728 7.338667 17.237333 9.728 39.082667 6.656 53.248-7.338667 13.994667-13.994667 17.066667-35.84 7.338666-53.248-2.048-3.584-4.437333-6.826667-7.338666-9.728l-0.170667-0.170666-6.997333-6.997334 8.533333-4.949333c4.437333-2.56 9.045333-4.949333 13.653333-7.168 3.072-1.536 6.314667-2.901333 9.386667-4.266667 4.096-1.706667 8.192-3.413333 12.458667-4.778666 4.778667-1.706667 9.898667-3.242667 14.848-4.608l9.728-2.56-0.170667 10.24c0 4.096 0.512 8.192 1.706667 12.117333 5.290667 19.114667 22.869333 32.426667 42.837333 32.426667 19.797333 0 37.376-13.312 42.837333-32.426667 1.024-3.925333 1.706667-7.850667 1.706667-11.946667l-0.170667-10.24 9.728 2.56c4.949333 1.365333 9.898667 2.901333 14.848 4.608 4.096 1.536 8.362667 3.072 12.458667 4.778667 3.242667 1.365333 6.314667 2.730667 9.386667 4.266667 4.608 2.218667 9.216 4.608 13.653333 7.168l8.704 4.949333-7.338667 7.168c-2.901333 2.901333-5.461333 6.144-7.338666 9.728-3.754667 6.656-5.632 14.165333-5.632 21.674667 0 11.946667 4.608 23.04 12.970666 31.402666 13.994667 13.994667 35.84 17.066667 53.248 7.338667 3.584-2.048 6.826667-4.437333 9.728-7.338667l0.170667-0.170666 6.997333-7.168 4.949334 8.704c2.56 4.437333 4.949333 9.045333 7.168 13.653333 1.536 3.072 2.901333 6.314667 4.266666 9.386667 1.706667 4.096 3.413333 8.192 4.778667 12.458666 1.706667 4.949333 3.242667 9.898667 4.608 14.848l2.56 9.728-10.24-0.170666c-4.096 0-8.021333 0.512-11.946667 1.706666-19.114667 5.290667-32.426667 22.869333-32.426666 42.837334 0 19.797333 13.312 37.376 32.426666 42.837333 3.925333 1.024 7.850667 1.706667 11.946667 1.706667H765.610667l-2.56 9.728c-1.365333 4.949333-2.901333 9.898667-4.608 14.848-1.536 4.096-3.072 8.362667-4.778667 12.458666-1.365333 3.242667-2.730667 6.314667-4.266667 9.386667-2.218667 4.608-4.608 9.216-7.168 13.653333l-4.949333 8.704-7.168-7.338666c-2.901333-2.901333-6.144-5.290667-9.728-7.338667-6.656-3.754667-14.165333-5.632-21.845333-5.632-11.946667 0-23.04 4.608-31.402667 12.970667s-12.970667 19.626667-12.970667 31.402666c0 7.68 1.877333 15.189333 5.632 21.845334 2.048 3.584 4.437333 6.826667 7.338667 9.728l7.338667 7.168-8.704 4.949333c-4.437333 2.56-9.045333 4.949333-13.653334 7.168-3.072 1.536-6.314667 2.901333-9.386666 4.266667-4.096 1.706667-8.192 3.413333-12.458667 4.778666-4.949333 1.706667-9.898667 3.242667-14.848 4.608l-9.898667 2.218667z m-44.202666-84.309333c30.037333 0 57.002667 18.432 68.437333 45.568 0.170667 0 0.170667 0 0.341333-0.170667-3.754667-8.874667-5.632-18.602667-5.632-28.330667 0-19.797333 7.68-38.4 21.674667-52.394666s32.597333-21.674667 52.394667-21.674667c9.728 0 19.456 1.877333 28.330666 5.632 0-0.170667 0-0.170667 0.170667-0.341333-27.306667-11.434667-45.568-38.4-45.568-68.266667s18.432-57.002667 45.568-68.437333c0-0.170667 0-0.170667-0.170667-0.341334-8.874667 3.754667-18.602667 5.632-28.330666 5.632-19.797333 0-38.4-7.68-52.394667-21.674666s-21.674667-32.597333-21.674667-52.394667c0-9.728 1.877333-19.456 5.632-28.330667-0.170667 0-0.170667 0-0.341333-0.170666-11.434667 27.306667-38.4 45.568-68.437333 45.568s-57.002667-18.432-68.266667-45.568c-0.170667 0-0.170667 0-0.341333 0.170666 11.264 27.306667 5.12 59.392-16.042667 80.554667-13.994667 13.994667-32.597333 21.674667-52.394667 21.674667-9.728 0-19.285333-1.877333-28.330666-5.632 0 0.170667 0 0.170667-0.170667 0.341333 27.306667 11.434667 45.568 38.4 45.568 68.437333s-18.432 57.002667-45.568 68.266667c0 0.170667 0 0.170667 0.170667 0.341333 8.874667-3.754667 18.602667-5.632 28.330666-5.632 19.797333 0 38.4 7.68 52.394667 21.674667 21.162667 21.162667 27.306667 53.248 16.042667 80.554667 0.170667 0 0.170667 0 0.341333 0.170666 11.264-26.794667 38.229333-45.226667 68.266667-45.226666z" fill="#488CFB" p-id="23830"></path><path d="M561.322667 809.813333c-54.613333 0-98.986667-44.373333-98.986667-98.986666s44.373333-98.986667 98.986667-98.986667 98.986667 44.373333 98.986666 98.986667c-0.170667 54.613333-44.544 98.986667-98.986666 98.986666z m0-167.424c-37.717333 0-68.437333 30.72-68.437334 68.437334s30.72 68.437333 68.437334 68.437333 68.437333-30.72 68.437333-68.437333-30.72-68.437333-68.437333-68.437334z" fill="#4191FB" p-id="23831"></path></svg>