<?xml version="1.0" standalone="no"?><!DOCTYPE svg PUBLIC "-//W3C//DTD SVG 1.1//EN" "http://www.w3.org/Graphics/SVG/1.1/DTD/svg11.dtd"><svg t="1742971254537" class="icon" viewBox="0 0 1024 1024" version="1.1" xmlns="http://www.w3.org/2000/svg" p-id="53272" xmlns:xlink="http://www.w3.org/1999/xlink" width="200" height="200"><path d="M373.96 540.97h109v86.01h-109z" fill="#FFFFFF" p-id="53273"></path><path d="M121.3 11.47h555.41L954.4 288.94v666.97c0 30.68-24.87 55.56-55.56 55.56H121.3c-30.68 0-55.56-24.87-55.56-55.56V67.02c0.01-30.68 24.88-55.55 55.56-55.55z" fill="#38D086" p-id="53274"></path><path d="M676.86 11.47l277.78 277.78H732.41c-22.4 0-55.56-33.3-55.56-55.56V11.47h0.01z" fill="#BEECD9" p-id="53275"></path><path d="M899.78 705.21c0-15.73-12.75-28.48-28.48-28.48h-81.56V485.78c0-15.83-12.83-28.66-28.66-28.66s-28.66 12.83-28.66 28.66V705.4c0 7.86 2.79 14.54 8.38 20.04s13.23 8.25 22.93 8.25H871.3c15.72 0 28.48-12.75 28.48-28.48zM133.09 471.78c10.63-8.54 25.63-7.98 35.58 0.64l3.48 3.61 171.5 213.47c9.61 11.96 7.7 29.44-4.26 39.05-10.63 8.54-25.63 7.98-35.58-0.64l-3.48-3.61-171.5-213.46c-9.61-11.96-7.7-29.45 4.26-39.06z" fill="#FFFFFF" p-id="53276"></path><path d="M339.4 471.78c-10.63-8.54-25.63-7.98-35.58 0.64l-3.48 3.61L128.83 689.5c-9.61 11.96-7.7 29.44 4.26 39.05 10.63 8.54 25.63 7.98 35.58-0.64l3.48-3.61 171.51-213.46c9.6-11.96 7.7-29.45-4.26-39.06zM435.28 486.38c6.48-24.68 39.1-27.69 50.86-7.03l2.18 4.79 48.64 136.94 44.93-136.33c7.99-24.26 40.77-25.23 51.22-3.86l1.88 4.92 58.87 206.25c4.21 14.75-4.34 30.12-19.09 34.34-13.11 3.74-26.72-2.59-32.53-14.41l-1.8-4.68-34.08-119.35-42.01 127.62c-7.73 23.47-39.1 25.39-50.45 5.26l-2.11-4.65-45.71-128.62-31.62 120.75c-3.46 13.19-15.85 21.66-28.98 20.65l-4.94-0.83c-13.19-3.46-21.66-15.85-20.65-28.98l0.83-4.94 54.56-207.84z" fill="#FFFFFF" p-id="53277"></path></svg>